<svg xmlns="http://www.w3.org/2000/svg" fill="none" viewBox="0 0 84 90">
  <path fill="currentColor" d="M4.188 90c-3 0-3.98-1.375-2.938-4.125L31.875 5.437C33.167 2.063 35.125.375 37.75.375h8.75c2.625 0 4.583 1.688 5.875 5.063L83 85.874c1.042 2.75.063 4.125-2.938 4.125h-9.937c-2.75 0-4.667-1.438-5.75-4.313L58 68.876H26.25l-6.375 16.813c-1.083 2.874-3 4.312-5.75 4.312H4.187Zm27.875-36.625h20.124L44.5 33.5c-.917-2.333-1.48-4.02-1.688-5.063-.166-1.083-.354-2.666-.562-4.75H42c-.208 2.084-.417 3.667-.625 4.75-.167 1.042-.708 2.73-1.625 5.063l-7.688 19.875Z"/>
</svg>
